<mxfile host="app.diagrams.net" modified="2022-10-06T18:37:33.057Z" agent="5.0 (Macintosh; Intel Mac OS X 10_15_7) AppleWebKit/537.36 (KHTML, like Gecko) Chrome/106.0.0.0 Safari/537.36" etag="k6r9bJEe3CEBe1hifvze" version="20.4.0" type="github">
  <diagram id="YOEuGwWkoxJejdRQ235l" name="Page-1">
    <mxGraphModel dx="1426" dy="769" grid="1" gridSize="10" guides="1" tooltips="1" connect="1" arrows="1" fold="1" page="1" pageScale="1" pageWidth="850" pageHeight="1100" math="0" shadow="0">
      <root>
        <mxCell id="0" />
        <mxCell id="1" parent="0" />
        <mxCell id="Tr4u-V8fKp2Gr-Ip-9MK-5" style="edgeStyle=orthogonalEdgeStyle;rounded=0;orthogonalLoop=1;jettySize=auto;html=1;exitX=1;exitY=0.5;exitDx=0;exitDy=0;" parent="1" source="Tr4u-V8fKp2Gr-Ip-9MK-1" target="Tr4u-V8fKp2Gr-Ip-9MK-3" edge="1">
          <mxGeometry relative="1" as="geometry" />
        </mxCell>
        <mxCell id="Tr4u-V8fKp2Gr-Ip-9MK-1" value="users" style="whiteSpace=wrap;html=1;aspect=fixed;" parent="1" vertex="1">
          <mxGeometry x="320" y="40" width="80" height="80" as="geometry" />
        </mxCell>
        <mxCell id="Tr4u-V8fKp2Gr-Ip-9MK-3" value="roles" style="whiteSpace=wrap;html=1;aspect=fixed;" parent="1" vertex="1">
          <mxGeometry x="440" y="40" width="80" height="80" as="geometry" />
        </mxCell>
        <mxCell id="Tr4u-V8fKp2Gr-Ip-9MK-8" value="users and roles (express.js postgresql)" style="text;html=1;strokeColor=none;fillColor=none;align=center;verticalAlign=middle;whiteSpace=wrap;rounded=0;" parent="1" vertex="1">
          <mxGeometry x="320" width="200" height="30" as="geometry" />
        </mxCell>
        <mxCell id="ODJ6U1LmXMyLJksvxZif-1" value="E-devlet&lt;br&gt;ceza sorgula" style="whiteSpace=wrap;html=1;aspect=fixed;" vertex="1" parent="1">
          <mxGeometry x="160" y="40" width="80" height="80" as="geometry" />
        </mxCell>
        <mxCell id="ODJ6U1LmXMyLJksvxZif-2" value="Kabis kaydÄ± yap" style="whiteSpace=wrap;html=1;aspect=fixed;" vertex="1" parent="1">
          <mxGeometry x="40" y="40" width="80" height="80" as="geometry" />
        </mxCell>
        <mxCell id="ODJ6U1LmXMyLJksvxZif-3" value="Branches" style="whiteSpace=wrap;html=1;aspect=fixed;" vertex="1" parent="1">
          <mxGeometry x="160" y="250" width="80" height="80" as="geometry" />
        </mxCell>
        <mxCell id="ODJ6U1LmXMyLJksvxZif-4" value="Bookings" style="whiteSpace=wrap;html=1;aspect=fixed;" vertex="1" parent="1">
          <mxGeometry x="320" y="340" width="80" height="80" as="geometry" />
        </mxCell>
        <mxCell id="ODJ6U1LmXMyLJksvxZif-5" value="Cars" style="whiteSpace=wrap;html=1;aspect=fixed;" vertex="1" parent="1">
          <mxGeometry x="160" y="340" width="80" height="80" as="geometry" />
        </mxCell>
        <mxCell id="ODJ6U1LmXMyLJksvxZif-6" value="Category" style="whiteSpace=wrap;html=1;aspect=fixed;" vertex="1" parent="1">
          <mxGeometry x="40" y="340" width="80" height="80" as="geometry" />
        </mxCell>
        <mxCell id="ODJ6U1LmXMyLJksvxZif-13" value="Car Prices" style="whiteSpace=wrap;html=1;aspect=fixed;" vertex="1" parent="1">
          <mxGeometry x="160" y="430" width="80" height="80" as="geometry" />
        </mxCell>
        <mxCell id="ODJ6U1LmXMyLJksvxZif-18" value="Price Period" style="whiteSpace=wrap;html=1;aspect=fixed;" vertex="1" parent="1">
          <mxGeometry x="160" y="520" width="80" height="80" as="geometry" />
        </mxCell>
      </root>
    </mxGraphModel>
  </diagram>
</mxfile>
